<svg width="473" height="60" viewBox="0 0 473 60" fill="none" xmlns="http://www.w3.org/2000/svg">
<path d="M40.8 24.8686L40.6714 24.7571L40.7829 24.6286C43.2829 21.7829 44.7857 18.3057 44.7857 14.8371C44.7857 13.9114 44.7457 12.9829 44.5829 12.1057C43.3057 5.21143 37.2257 0.0142857 29.9686 0H0V12.0829H27.7486C30.24 12.0829 32.2629 14.1029 32.2629 16.5971C32.2629 19.0914 30.2429 21.1114 27.7486 21.1114H12.62V14.8L0 21.1114V52.5543H30.8971C38.0657 52.5543 44.1286 47.7371 46.0257 41.1714C46.4257 39.7857 46.6457 38.3229 46.6457 36.8086C46.6457 32.32 44.4029 27.9686 40.8029 24.8686H40.8ZM28.2429 40.56H12.62V30.7943H28.2429C30.94 30.7943 33.1257 32.98 33.1257 35.6771C33.1257 38.3743 30.94 40.56 28.2429 40.56ZM108.603 14.3514H120.017L107.097 52.5229H94.5972L81.5286 14.3514H93.52L101.06 39.4371L108.6 14.3514H108.603ZM79.5114 52.5943L79.3086 52.6286C77.86 52.8714 75.8114 52.9914 73.22 52.9914C64.7514 52.9914 60.9286 50.1686 60.9286 43.5543V22.2914H54.7772V14.3514H60.9286V8.89714L72.2886 3.21714V14.3514H79.5143V22.2914H72.2886V40.0886C72.2886 43.2457 72.9257 43.8829 76.0829 43.8829C77.3714 43.8829 78.3886 43.7914 79.1086 43.6114L79.5143 43.5086V52.5914L79.5114 52.5943Z" fill="#491BC7"/>
<path d="M188.917 34.2686V42.2457H165.789V55.0971L157.32 59.3314V42.2428H134.191V34.2657H188.92L188.917 34.2686ZM140.963 15.0543C140.963 6.80856 149.629 0.891418 161.551 0.891418C173.474 0.891418 182.14 6.80856 182.14 15.0543C182.14 23.3 173.474 29.2171 161.551 29.2171C149.629 29.2171 140.963 23.3 140.963 15.0543ZM149.823 15.0543C149.823 18.8428 154.643 21.6371 161.551 21.6371C168.46 21.6371 173.28 18.8457 173.28 15.0543C173.28 11.2628 168.46 8.47142 161.551 8.47142C154.643 8.47142 149.823 11.2628 149.823 15.0543Z" fill="#491BC7"/>
<path d="M233.449 0.0285645H241.917V54.7686L233.449 59.0029V41.9829C227.454 44.1771 220.026 45.1743 213.057 45.1743H194.097V21.6371H214.034V12.86H194.097V5.41428H222.374V28.9514H202.437V37.7286H213.057C220.029 37.7286 227.457 36.5314 233.449 34.4714V0.0285645Z" fill="#491BC7"/>
<path d="M278.837 26.9571H302.031V34.1371H247.303V26.9571H270.497V22.3029H255.446V1.35715H293.886V8.53715H263.914V15.12H294.537V22.3H278.834V26.9543L278.837 26.9571ZM294.606 48.6314C294.606 55.6114 286.789 59.9343 274.669 59.9343C262.549 59.9343 254.731 55.6114 254.731 48.6314C254.731 41.6514 262.549 37.3286 274.669 37.3286C286.789 37.3286 294.606 41.6514 294.606 48.6314ZM286.134 48.6314C286.134 46.1057 281.509 44.5086 274.669 44.5086C267.829 44.5086 263.203 46.1029 263.203 48.6314C263.203 51.16 267.829 52.7543 274.669 52.7543C281.509 52.7543 286.134 51.16 286.134 48.6314Z" fill="#491BC7"/>
<path d="M315.646 36.6629H315.711C321.446 36.6629 327.049 35.7314 331.283 34.5343V42.38C327.44 43.4429 321.446 44.5086 315.646 44.5086H307.306V6.01142H315.646V36.6629ZM336.82 18.38V0.691422H344.377V53.2286L336.82 57.0086V26.2257H325.94V18.38H336.82ZM349.329 0.0285645H357.017V55.16L349.329 59.0029V0.0285645Z" fill="#491BC7"/>
<path d="M410.806 13.26H418.626V21.1057H410.806V35.0028L402.466 36.5314V31.4771C397.577 32.74 391.583 33.4714 385.069 33.4714H361.611V26.5571H372.557V16.5171H380.897V26.5571H385.069C391.586 26.5571 397.58 25.8257 402.466 24.5628V0.0285645H410.806V13.26ZM387.283 9.99999H365.714V3.08571H395.623V8.93713C395.623 14.3228 395.429 17.9114 394.646 22.7L386.371 22.1686C387.089 17.3828 387.283 14.1914 387.283 10.4657V9.99999ZM411.457 48.6314C411.457 55.4114 403.834 60 391.257 60C378.68 60 371.057 55.4114 371.057 48.6314C371.057 41.8514 378.68 37.3286 391.257 37.3286C403.834 37.3286 411.457 41.8486 411.457 48.6314ZM402.791 48.6314C402.791 46.0371 398.817 44.1771 391.257 44.1771C383.697 44.1771 379.723 46.04 379.723 48.6314C379.723 51.2228 383.697 53.0857 391.257 53.0857C398.817 53.0857 402.791 51.2228 402.791 48.6314Z" fill="#491BC7"/>
<path d="M445.797 44.2428H472.903V52.22H418.169V44.2428H437.457V24.5628H445.797V44.2428ZM456.614 11.9286H425.337V3.95142H465.086V16.3857C465.086 21.24 464.566 29.2857 463.391 35.2028L454.986 34.5371C456.157 28.62 456.614 21.24 456.614 16.3857V11.9314V11.9286Z" fill="#491BC7"/>
</svg>
