<svg width="118" height="15" viewBox="0 0 118 15" fill="none" xmlns="http://www.w3.org/2000/svg">
<g clip-path="url(#clip0_358_490)">
<path d="M10.1805 6.21714L10.1484 6.18929L10.1762 6.15714C10.8001 5.44571 11.1751 4.57643 11.1751 3.70929C11.1751 3.47786 11.1651 3.24571 11.1244 3.02643C10.8058 1.30286 9.28866 0.00357143 7.47784 0H0V3.02071H6.9239C7.54557 3.02071 8.05031 3.52571 8.05031 4.14929C8.05031 4.77286 7.54628 5.27786 6.9239 5.27786H3.14898V3.7L0 5.27786V13.1386H7.70954C9.49826 13.1386 11.0111 11.9343 11.4845 10.2929C11.5843 9.94643 11.6392 9.58071 11.6392 9.20214C11.6392 8.08 11.0795 6.99214 10.1812 6.21714H10.1805ZM7.04723 10.14H3.14898V7.69857H7.04723C7.72023 7.69857 8.26562 8.245 8.26562 8.91929C8.26562 9.59357 7.72023 10.14 7.04723 10.14ZM27.0989 3.58786H29.947L26.7232 13.1307H23.6041L20.3432 3.58786H23.3354L25.2168 9.85929L27.0982 3.58786H27.0989ZM19.8399 13.1486L19.7893 13.1571C19.4278 13.2179 18.9167 13.2479 18.2701 13.2479C16.1569 13.2479 15.2031 12.5421 15.2031 10.8886V5.57286H13.6681V3.58786H15.2031V2.22429L18.0376 0.804286V3.58786H19.8406V5.57286H18.0376V10.0221C18.0376 10.8114 18.1966 10.9707 18.9844 10.9707C19.3059 10.9707 19.5597 10.9479 19.7394 10.9029L19.8406 10.8771V13.1479L19.8399 13.1486Z" fill="#491BC7"/>
<path d="M47.1392 8.56718V10.5615H41.3681V13.7743L39.255 14.8329V10.5608H33.4839V8.56647H47.1399L47.1392 8.56718ZM35.1735 3.76361C35.1735 1.70219 37.3358 0.2229 40.3108 0.2229C43.2859 0.2229 45.4481 1.70219 45.4481 3.76361C45.4481 5.82504 43.2859 7.30433 40.3108 7.30433C37.3358 7.30433 35.1735 5.82504 35.1735 3.76361ZM37.3843 3.76361C37.3843 4.71076 38.587 5.40933 40.3108 5.40933C42.0347 5.40933 43.2374 4.71147 43.2374 3.76361C43.2374 2.81576 42.0347 2.1179 40.3108 2.1179C38.587 2.1179 37.3843 2.81576 37.3843 3.76361Z" fill="#491BC7"/>
<path d="M58.2507 0.00708008H60.3638V13.6921L58.2507 14.7507V10.4957C56.755 11.0442 54.9014 11.2935 53.1626 11.2935H48.4316V5.40922H53.4064V3.21494H48.4316V1.35351H55.4874V7.2378H50.5127V9.43208H53.1626C54.9021 9.43208 56.7557 9.1328 58.2507 8.6178V0.00708008Z" fill="#491BC7"/>
<path d="M69.5763 6.73911H75.3638V8.53411H61.7078V6.73911H67.4953V5.57554H63.7396V0.339111H73.3312V2.13411H65.8527V3.77982H73.4938V5.57482H69.5756V6.7384L69.5763 6.73911ZM73.5109 12.1577C73.5109 13.9027 71.5603 14.9834 68.5361 14.9834C65.5119 14.9834 63.5614 13.9027 63.5614 12.1577C63.5614 10.4127 65.5119 9.33197 68.5361 9.33197C71.5603 9.33197 73.5109 10.4127 73.5109 12.1577ZM71.3971 12.1577C71.3971 11.5263 70.2429 11.127 68.5361 11.127C66.8294 11.127 65.6752 11.5255 65.6752 12.1577C65.6752 12.7898 66.8294 13.1884 68.5361 13.1884C70.2429 13.1884 71.3971 12.7898 71.3971 12.1577Z" fill="#491BC7"/>
<path d="M78.7607 9.16565H78.7771C80.2079 9.16565 81.606 8.9328 82.6625 8.63351V10.5949C81.7037 10.8607 80.2079 11.1271 78.7607 11.1271H76.6797V1.50279H78.7607V9.16565ZM84.0442 4.59494V0.172794H85.9298V13.3071L84.0442 14.2521V6.55637H81.3294V4.59494H84.0442ZM87.1653 0.00708008H89.0838V13.7899L87.1653 14.7507V0.00708008Z" fill="#491BC7"/>
<path d="M102.505 3.31494H104.457V5.27636H102.505V8.75065L100.424 9.13279V7.86922C99.2045 8.18493 97.7088 8.36779 96.0833 8.36779H90.2302V6.63922H92.9614V4.12922H95.0424V6.63922H96.0833C97.7095 6.63922 99.2052 6.45636 100.424 6.14065V0.00708008H102.505V3.31494ZM96.6358 2.49994H91.254V0.771366H98.7169V2.23422C98.7169 3.58065 98.6684 4.47779 98.473 5.67494L96.4084 5.54208C96.5874 4.34565 96.6358 3.54779 96.6358 2.61637V2.49994ZM102.668 12.1578C102.668 13.8528 100.766 14.9999 97.6275 14.9999C94.4892 14.9999 92.5871 13.8528 92.5871 12.1578C92.5871 10.4628 94.4892 9.33208 97.6275 9.33208C100.766 9.33208 102.668 10.4621 102.668 12.1578ZM100.506 12.1578C100.506 11.5092 99.5139 11.0442 97.6275 11.0442C95.7411 11.0442 94.7494 11.5099 94.7494 12.1578C94.7494 12.8056 95.7411 13.2714 97.6275 13.2714C99.5139 13.2714 100.506 12.8056 100.506 12.1578Z" fill="#491BC7"/>
<path d="M111.236 11.0606H118V13.0549H104.343V11.0606H109.155V6.14065H111.236V11.0606ZM113.936 2.98208H106.131V0.987793H116.049V4.09636C116.049 5.30994 115.92 7.32136 115.627 8.80065L113.529 8.63422C113.822 7.15494 113.936 5.30994 113.936 4.09636V2.98279V2.98208Z" fill="#491BC7"/>
</g>
<defs>
<clipPath id="clip0_358_490">
<rect width="118" height="15" fill="white"/>
</clipPath>
</defs>
</svg>
