<svg width="32" height="32" viewBox="0 0 32 32" fill="none" xmlns="http://www.w3.org/2000/svg">
<g id="icon/Star32">
<path id="Star 1" d="M14.5734 4.39057C15.0224 3.00861 16.9776 3.00861 17.4266 4.39058L19.2555 10.0193C19.4563 10.6373 20.0322 11.0557 20.682 11.0557H26.6004C28.0535 11.0557 28.6576 12.9152 27.4821 13.7693L22.694 17.248C22.1683 17.6299 21.9483 18.307 22.1491 18.925L23.978 24.5537C24.427 25.9357 22.8453 27.0848 21.6697 26.2307L16.8817 22.752C16.3559 22.3701 15.6441 22.3701 15.1183 22.752L10.3303 26.2307C9.15471 27.0849 7.57299 25.9357 8.02202 24.5537L9.85089 18.925C10.0517 18.307 9.83171 17.6299 9.30598 17.248L4.51794 13.7693C3.34237 12.9151 3.94654 11.0557 5.39962 11.0557H11.318C11.9678 11.0557 12.5437 10.6373 12.7445 10.0193L14.5734 4.39057Z" fill="#FFC710"/>
</g>
</svg>
