<svg width="21" height="20" viewBox="0 0 21 20" fill="none" xmlns="http://www.w3.org/2000/svg">
<g id="play-01">
<path id="Icon" d="M13.4995 10.6745L13.0903 10.046L13.0799 10.0528L13.0697 10.0599L13.4995 10.6745ZM13.4995 9.52771L13.0548 10.1316L13.0883 10.1563L13.1243 10.1771L13.4995 9.52771ZM8.90335 6.1433L9.34806 5.53937L9.3269 5.52379L9.3047 5.50972L8.90335 6.1433ZM7.93979 6.64881L8.68991 6.64663L8.68964 6.6335L7.93979 6.64881ZM7.95907 13.2969L7.20907 13.2991L7.20913 13.3203L7.21039 13.3415L7.95907 13.2969ZM8.95795 13.8509L9.32112 14.5071L9.35555 14.4881L9.3878 14.4655L8.95795 13.8509ZM5.5 2.75H15.5V1.25H5.5V2.75ZM17.75 5V15H19.25V5H17.75ZM15.5 17.25H5.5V18.75H15.5V17.25ZM3.25 15V5H1.75V15H3.25ZM5.5 17.25C4.25736 17.25 3.25 16.2426 3.25 15H1.75C1.75 17.0711 3.42893 18.75 5.5 18.75V17.25ZM17.75 15C17.75 16.2426 16.7426 17.25 15.5 17.25V18.75C17.5711 18.75 19.25 17.0711 19.25 15H17.75ZM15.5 2.75C16.7426 2.75 17.75 3.75736 17.75 5H19.25C19.25 2.92893 17.5711 1.25 15.5 1.25V2.75ZM5.5 1.25C3.42893 1.25 1.75 2.92893 1.75 5H3.25C3.25 3.75736 4.25736 2.75 5.5 2.75V1.25ZM13.9087 11.3031C14.2639 11.0719 14.6904 10.6734 14.6895 10.0835C14.6887 9.47686 14.2411 9.09004 13.8748 8.87835L13.1243 10.1771C13.1686 10.2027 13.1988 10.2242 13.218 10.2399C13.2374 10.2557 13.2423 10.2627 13.2393 10.2589C13.236 10.2547 13.2232 10.2373 13.2111 10.2058C13.1986 10.173 13.1896 10.1318 13.1896 10.0856C13.1895 10.0396 13.1983 10.0011 13.2085 9.9733C13.2184 9.94668 13.2278 9.93419 13.2271 9.93523C13.2262 9.93647 13.2171 9.94818 13.1941 9.96866C13.1712 9.989 13.1376 10.0152 13.0903 10.046L13.9087 11.3031ZM13.9442 8.92378L9.34806 5.53937L8.45864 6.74724L13.0548 10.1316L13.9442 8.92378ZM9.3047 5.50972C8.92792 5.27105 8.40785 5.13985 7.92079 5.36726C7.39231 5.61402 7.1794 6.14737 7.18995 6.66411L8.68964 6.6335C8.68842 6.57385 8.70044 6.57513 8.68263 6.60922C8.66189 6.6489 8.61874 6.69684 8.5554 6.72641C8.49673 6.7538 8.45391 6.75032 8.4459 6.74919C8.4389 6.74821 8.4594 6.74989 8.50201 6.77688L9.3047 5.50972ZM7.1898 6.65098L7.20907 13.2991L8.70906 13.2947L8.68979 6.64663L7.1898 6.65098ZM7.21039 13.3415C7.23628 13.7764 7.3863 14.3323 7.90645 14.6101C8.41886 14.8838 8.95825 14.7079 9.32112 14.5071L8.59479 13.1947C8.55237 13.2182 8.51949 13.2326 8.49609 13.2411C8.47255 13.2497 8.46218 13.251 8.46386 13.2508C8.46585 13.2505 8.48266 13.2484 8.51063 13.2525C8.53966 13.2568 8.57563 13.267 8.6131 13.287C8.65068 13.3071 8.6801 13.3318 8.70101 13.3552C8.72119 13.3777 8.72957 13.3945 8.73104 13.3976C8.73234 13.4004 8.72784 13.3915 8.72223 13.3664C8.71665 13.3414 8.71082 13.3041 8.70774 13.2523L7.21039 13.3415ZM9.3878 14.4655L13.9294 11.2891L13.0697 10.0599L8.5281 13.2363L9.3878 14.4655Z" fill="#A9A9A9"/>
</g>
</svg>
