<svg width="48" height="48" viewBox="0 0 48 48" fill="none" xmlns="http://www.w3.org/2000/svg">
<path d="M30.0996 38C35.9173 35.4733 40 29.5533 40 22.6531C40 13.4558 32.7467 6 23.7993 6C16.0892 6 9.6371 11.5363 8 18.9524" stroke="#303030" stroke-width="1.5" stroke-linecap="round"/>
<rect x="36.75" y="18.75" width="6.5" height="10.5" rx="3.25" fill="white"/>
<rect x="36.75" y="18.75" width="6.5" height="10.5" rx="3.25" fill="white"/>
<rect x="36.75" y="18.75" width="6.5" height="10.5" rx="3.25" stroke="#303030" stroke-width="1.5"/>
<rect x="4.75" y="18.75" width="6.5" height="10.5" rx="3.25" fill="white"/>
<rect x="4.75" y="18.75" width="6.5" height="10.5" rx="3.25" fill="white"/>
<rect x="4.75" y="18.75" width="6.5" height="10.5" rx="3.25" stroke="#303030" stroke-width="1.5"/>
<rect x="20.75" y="35.75" width="8.5" height="4.5" rx="2.25" fill="white" stroke="#303030" stroke-width="1.5"/>
<circle cx="24" cy="22" r="8.25" stroke="#3617CE" stroke-width="1.5"/>
<circle cx="20" cy="22" r="1" fill="#3617CE"/>
<circle cx="24" cy="22" r="1" fill="#3617CE"/>
<circle cx="28" cy="22" r="1" fill="#3617CE"/>
</svg>
