<svg width="48" height="48" viewBox="0 0 48 48" fill="none" xmlns="http://www.w3.org/2000/svg">
<circle cx="24" cy="24" r="16" fill="#F7F8FB"/>
<path fill-rule="evenodd" clip-rule="evenodd" d="M24.0016 8C23.4727 8 22.9496 8.02569 22.4334 8.07592L22.5787 9.56886C23.0466 9.52332 23.5213 9.5 24.0016 9.5H24.7516V8H24.0016ZM19.3553 8.68519C18.3429 8.99192 17.373 9.39621 16.4566 9.88704L17.1649 11.2093C17.9951 10.7646 18.8735 10.3985 19.7902 10.1207L19.3553 8.68519ZM13.8498 11.632C13.0402 12.2972 12.2972 13.0402 11.632 13.8498L12.791 14.802C13.3941 14.068 14.068 13.3941 14.802 12.791L13.8498 11.632ZM9.88704 16.4566C9.39621 17.373 8.99192 18.3429 8.68519 19.3553L10.1207 19.7902C10.3985 18.8735 10.7646 17.9951 11.2093 17.1649L9.88704 16.4566ZM8.07592 22.4334C8.02569 22.9496 8 23.4727 8 24.0016C8 24.5305 8.02569 25.0536 8.07592 25.5697L9.56886 25.4244C9.52332 24.9565 9.5 24.4819 9.5 24.0016C9.5 23.5213 9.52332 23.0466 9.56886 22.5787L8.07592 22.4334ZM8.68519 28.6478C8.99192 29.6602 9.39621 30.6301 9.88704 31.5465L11.2093 30.8383C10.7646 30.008 10.3985 29.1296 10.1207 28.2129L8.68519 28.6478ZM11.632 34.1533C12.2972 34.9629 13.0402 35.706 13.8498 36.3711L14.802 35.2122C14.068 34.609 13.3941 33.9352 12.791 33.2011L11.632 34.1533ZM16.4566 38.1161C17.373 38.6069 18.3429 39.0112 19.3553 39.318L19.7902 37.8824C18.8735 37.6047 17.9951 37.2385 17.1649 36.7938L16.4566 38.1161ZM22.4334 39.9272C22.9496 39.9775 23.4727 40.0031 24.0016 40.0031H24.7516V38.5031H24.0016C23.5213 38.5031 23.0466 38.4798 22.5787 38.4343L22.4334 39.9272ZM26.7212 9.75449C33.4301 11.0271 38.5028 16.9227 38.5028 24.0015C38.5028 31.3961 32.9676 37.499 25.8149 38.3909L26.0005 39.8794C33.8947 38.895 40.0028 32.1621 40.0028 24.0015C40.0028 16.1888 34.4044 9.6852 27.0007 8.28077L26.7212 9.75449Z" fill="#A9A9A9"/>
<path d="M17 19L21 29L24 19L27 29L31 19" stroke="#A9A9A9" stroke-width="1.5" stroke-linecap="round" stroke-linejoin="round"/>
<path d="M16 23.25H32" stroke="#A9A9A9" stroke-width="1.5" stroke-linecap="round"/>
</svg>
