<svg width="40" height="40" viewBox="0 0 40 40" fill="none" xmlns="http://www.w3.org/2000/svg">
<g id="icon">
<path id="Union" fill-rule="evenodd" clip-rule="evenodd" d="M27.4501 18.5427C27.4501 24.0975 22.9758 28.5854 17.475 28.5854C11.9743 28.5854 7.5 24.0975 7.5 18.5427C7.5 12.9879 11.9743 8.5 17.475 8.5C22.9758 8.5 27.4501 12.9879 27.4501 18.5427ZM25.4045 26.8863C23.3441 28.8681 20.5509 30.0854 17.475 30.0854C11.1376 30.0854 6 24.9176 6 18.5427C6 12.1678 11.1376 7 17.475 7C23.8125 7 28.9501 12.1678 28.9501 18.5427C28.9501 21.2814 28.0019 23.7973 26.4177 25.7764L33.7249 31.6659C34.0474 31.9258 34.0981 32.398 33.8382 32.7205C33.5782 33.043 33.1061 33.0937 32.7836 32.8338L25.4045 26.8863Z" fill="black"/>
</g>
</svg>
