<svg width="40" height="40" viewBox="0 0 40 40" fill="none" xmlns="http://www.w3.org/2000/svg">
<path d="M17.0795 34.3279C16.8984 34.8496 16.3286 35.1258 15.8069 34.9447C15.2851 34.7636 15.009 34.1939 15.1901 33.6721L17.0795 34.3279ZM23.3943 16.1339L17.0795 34.3279L15.1901 33.6721L21.5049 15.4781L23.3943 16.1339Z" fill="#1D1D1B"/>
<path d="M18.7891 15.806L25.1039 34" stroke="#1D1D1B" stroke-width="2" stroke-linecap="round" stroke-linejoin="round"/>
<path d="M36.5 5H3.5C2.11929 5 1 6.11929 1 7.5V26.5C1 27.8807 2.11929 29 3.5 29H36.5C37.8807 29 39 27.8807 39 26.5V7.5C39 6.11929 37.8807 5 36.5 5Z" fill="#F7F8FB" stroke="#1D1D1B" stroke-width="2" stroke-linejoin="round"/>
<path d="M20.4688 18.0078H17.5469L17.5312 16.3984H19.9844C20.4167 16.3984 20.7708 16.3438 21.0469 16.2344C21.3229 16.1198 21.5286 15.9557 21.6641 15.7422C21.8047 15.5234 21.875 15.2578 21.875 14.9453C21.875 14.5911 21.8073 14.3047 21.6719 14.0859C21.5417 13.8672 21.3359 13.7083 21.0547 13.6094C20.7786 13.5104 20.4219 13.4609 19.9844 13.4609H18.3594V23H16.0156V11.625H19.9844C20.6458 11.625 21.237 11.6875 21.7578 11.8125C22.2839 11.9375 22.7292 12.1276 23.0938 12.3828C23.4583 12.638 23.737 12.9609 23.9297 13.3516C24.1224 13.737 24.2188 14.1953 24.2188 14.7266C24.2188 15.1953 24.112 15.6276 23.8984 16.0234C23.6901 16.4193 23.3594 16.7422 22.9062 16.9922C22.4583 17.2422 21.8724 17.3802 21.1484 17.4062L20.4688 18.0078ZM20.3672 23H16.9062L17.8203 21.1719H20.3672C20.7786 21.1719 21.1146 21.1068 21.375 20.9766C21.6354 20.8411 21.8281 20.6589 21.9531 20.4297C22.0781 20.2005 22.1406 19.9375 22.1406 19.6406C22.1406 19.3073 22.0833 19.0182 21.9688 18.7734C21.8594 18.5286 21.6823 18.3411 21.4375 18.2109C21.1927 18.0755 20.8698 18.0078 20.4688 18.0078H18.2109L18.2266 16.3984H21.0391L21.5781 17.0312C22.2708 17.0208 22.8281 17.1432 23.25 17.3984C23.6771 17.6484 23.987 17.974 24.1797 18.375C24.3776 18.776 24.4766 19.2057 24.4766 19.6641C24.4766 20.3932 24.3177 21.0078 24 21.5078C23.6823 22.0026 23.2161 22.375 22.6016 22.625C21.9922 22.875 21.2474 23 20.3672 23Z" fill="#3617CE"/>
</svg>
