<svg xmlns="http://www.w3.org/2000/svg" width="24" height="24" viewBox="0 0 24 24" fill="none">
  <path fill-rule="evenodd" clip-rule="evenodd" d="M12.2813 2C11.9417 2 11.6056 2.01649 11.2741 2.04877L11.4194 3.54171C11.7027 3.51413 11.9902 3.5 12.2813 3.5H13.0313V2H12.2813ZM9.2961 2.44029C8.64546 2.63741 8.02219 2.89722 7.43336 3.21261L8.14159 4.53489C8.64429 4.26563 9.17609 4.04398 9.73103 3.87585L9.2961 2.44029ZM5.75849 4.33373C5.23841 4.76104 4.76104 5.23841 4.33373 5.75849L5.49271 6.71073C5.85801 6.26613 6.26613 5.85801 6.71073 5.49271L5.75849 4.33373ZM3.21261 7.43336C2.89722 8.02219 2.63741 8.64546 2.44029 9.2961L3.87585 9.73104C4.04398 9.17609 4.26563 8.64429 4.53489 8.14159L3.21261 7.43336ZM2.04877 11.2741C2.01649 11.6056 2 11.9417 2 12.2813C2 12.6209 2.01649 12.9569 2.04877 13.2885L3.54171 13.1432C3.51413 12.8599 3.5 12.5723 3.5 12.2813C3.5 11.9903 3.51413 11.7027 3.54171 11.4194L2.04877 11.2741ZM2.44029 15.2665C2.63741 15.9171 2.89722 16.5404 3.21261 17.1292L4.53489 16.421C4.26563 15.9183 4.04398 15.3865 3.87585 14.8316L2.44029 15.2665ZM4.33373 18.8041C4.76104 19.3242 5.23841 19.8015 5.75849 20.2289L6.71073 19.0699C6.26613 18.7046 5.85801 18.2965 5.49271 17.8519L4.33373 18.8041ZM7.43336 21.35C8.02219 21.6654 8.64546 21.9252 9.2961 22.1223L9.73103 20.6867C9.17609 20.5186 8.64429 20.297 8.14159 20.0277L7.43336 21.35ZM11.2741 22.5138C11.6056 22.5461 11.9417 22.5626 12.2813 22.5626H13.0313V21.0626H12.2813C11.9902 21.0626 11.7027 21.0485 11.4194 21.0209L11.2741 22.5138ZM13.9284 3.65411C17.9908 4.42471 21.0624 7.99509 21.0624 12.2813C21.0624 16.7588 17.7107 20.4545 13.3797 20.9946L13.5653 22.4831C18.6377 21.8505 22.5624 17.5248 22.5624 12.2813C22.5624 7.26114 18.9652 3.0828 14.208 2.18039L13.9284 3.65411Z" fill="#A9A9A9"/>
  <path d="M9 8H15.75M9 17H15.75M14.9062 8V8.81997C14.9062 9.49191 14.6807 10.1444 14.2657 10.6729L13.1952 12.036C12.9498 12.3484 12.9556 12.7897 13.2092 13.0956L14.2159 14.31C14.6621 14.8483 14.9062 15.5255 14.9062 16.2246V17M9.84375 8V8.81997C9.84375 9.49191 10.0693 10.1444 10.4843 10.6729L11.5548 12.036C11.8002 12.3484 11.7944 12.7897 11.5408 13.0956L10.5341 14.31C10.0879 14.8483 9.84375 15.5255 9.84375 16.2246V17" stroke="#A9A9A9" stroke-width="1.5" stroke-linecap="round" stroke-linejoin="round"/>
</svg>