<svg width="40" height="38" viewBox="0 0 40 38" fill="none" xmlns="http://www.w3.org/2000/svg">
<g id="Group 63">
<path id="Line 2" d="M13 37H27" stroke="#303030" stroke-width="1.5" stroke-linecap="round"/>
<rect id="Rectangle 34" x="0.75" y="7.75" width="38.5" height="24.5" rx="3.25" stroke="#303030" stroke-width="1.5"/>
<g id="Group 87">
<circle id="Ellipse 18" cx="20" cy="20" r="7.25" fill="#F7F8FB" stroke="#3617CE" stroke-width="1.5"/>
<g id="Group 88">
<circle id="Ellipse 17" cx="20" cy="17" r="1" fill="#3617CE"/>
<rect id="Rectangle 48" x="19" y="19" width="2" height="6" rx="1" fill="#3617CE"/>
</g>
</g>
<g id="Group 62">
<path id="Line 3" d="M14.6334 0.598399C14.4407 0.231768 14.0008 0.114357 13.651 0.336155C13.3012 0.557953 13.1738 1.03497 13.3666 1.4016L14.6334 0.598399ZM16.521 7.4016L16.8701 8.06545L18.1369 7.26224L17.7879 6.5984L16.521 7.4016ZM13.3666 1.4016L16.521 7.4016L17.7879 6.5984L14.6334 0.598399L13.3666 1.4016Z" fill="#303030"/>
<path id="Line 4" d="M25.3666 0.598399C25.5593 0.231768 25.9992 0.114357 26.349 0.336155C26.6988 0.557953 26.8262 1.03497 26.6334 1.4016L25.3666 0.598399ZM23.479 7.4016L23.1299 8.06545L21.8631 7.26224L22.2121 6.5984L23.479 7.4016ZM26.6334 1.4016L23.479 7.4016L22.2121 6.5984L25.3666 0.598399L26.6334 1.4016Z" fill="#303030"/>
</g>
</g>
</svg>
