<svg width="24" height="24" viewBox="0 0 24 24" fill="none" xmlns="http://www.w3.org/2000/svg">
<g id="Group 83">
<circle id="Ellipse 15" cx="12" cy="12" r="12" fill="#FFEC00"/>
<path id="Vector" d="M12 6.75C8.89338 6.75 6.375 8.73568 6.375 11.1851C6.375 12.7687 7.42785 14.1582 9.01161 14.9429C8.92545 15.24 8.45793 16.8545 8.43932 16.9813C8.43932 16.9813 8.42813 17.0766 8.48984 17.113C8.55155 17.1493 8.62413 17.1211 8.62413 17.1211C8.80111 17.0964 10.6763 15.7792 11.0009 15.5504C11.3252 15.5963 11.659 15.6202 12 15.6202C15.1066 15.6202 17.625 13.6346 17.625 11.1851C17.625 8.73568 15.1066 6.75 12 6.75Z" fill="black"/>
</g>
</svg>
