<svg xmlns="http://www.w3.org/2000/svg" width="48" height="48" viewBox="0 0 48 48" fill="none">
  <circle cx="24" cy="24" r="15.25" fill="#F7F8FB" stroke="#A9A9A9" stroke-width="1.5"/>
  <path fill-rule="evenodd" clip-rule="evenodd" d="M29.9813 19.2832C30.2735 18.9896 30.2735 18.5137 29.9813 18.2202C29.689 17.9266 29.2152 17.9266 28.923 18.2202L24.1016 23.0631L19.2801 18.2202C18.9879 17.9266 18.5141 17.9266 18.2218 18.2202C17.9296 18.5137 17.9296 18.9896 18.2218 19.2832L23.0433 24.1261L18.2192 28.9717C17.9269 29.2652 17.9269 29.7412 18.2192 30.0347C18.5114 30.3282 18.9852 30.3282 19.2775 30.0347L24.1016 25.1891L28.9256 30.0347C29.2179 30.3282 29.6917 30.3282 29.9839 30.0347C30.2762 29.7412 30.2762 29.2652 29.9839 28.9717L25.1598 24.1261L29.9813 19.2832Z" fill="#A9A9A9"/>
</svg>