<svg xmlns="http://www.w3.org/2000/svg" width="20" height="21" viewBox="0 0 20 21" fill="none">
  <path d="M6 20H14" stroke="#3617CE" stroke-width="1.5" stroke-linecap="round"/>
  <rect x="0.75" y="4.75" width="18.5" height="12.5" rx="3.25" stroke="#3617CE" stroke-width="1.5"/>
  <circle cx="10" cy="8" r="1" fill="#3617CE"/>
  <rect x="9" y="10" width="2" height="5" rx="1" fill="#3617CE"/>
  <path d="M7.63342 0.598399C7.44066 0.231768 7.00081 0.114357 6.65099 0.336155C6.30116 0.557953 6.17383 1.03497 6.36658 1.4016L7.63342 0.598399ZM7.94381 4.4016L8.29283 5.06545L9.55966 4.26224L9.21065 3.5984L7.94381 4.4016ZM6.36658 1.4016L7.94381 4.4016L9.21065 3.5984L7.63342 0.598399L6.36658 1.4016Z" fill="#3617CE"/>
  <path d="M12.3666 0.598399C12.5593 0.231768 12.9992 0.114357 13.349 0.336155C13.6988 0.557953 13.8262 1.03497 13.6334 1.4016L12.3666 0.598399ZM12.0562 4.4016L11.7072 5.06545L10.4403 4.26224L10.7894 3.5984L12.0562 4.4016ZM13.6334 1.4016L12.0562 4.4016L10.7894 3.5984L12.3666 0.598399L13.6334 1.4016Z" fill="#3617CE"/>
</svg>