<svg xmlns="http://www.w3.org/2000/svg" width="48" height="48" viewBox="0 0 48 48" fill="none">
  <path d="M36.5 27.8053L38.5 26.6506C40.5 25.4959 40.5 22.6092 38.5 21.4545L14.5 7.59807C12.5 6.44337 10 7.88675 10 10.1962L10 37.909C10 40.2184 12.5 41.6617 14.5 40.507L17.5 38.775" stroke="black" stroke-width="1.5" stroke-linecap="round"/>
  <path d="M20.3077 32.8038L18.7855 34.326M18.6264 28.7442H16.4736M18.7855 23.1633L20.3077 24.6855M24.3675 20.8511L24.3675 23.0038M29.9486 23.1633L28.4263 24.6855M35.0603 37.5119L33.3803 39.1919C33.1947 39.3775 32.8938 39.3775 32.7083 39.1919L30.0596 36.5432C29.8593 36.343 29.5295 36.3612 29.3525 36.5824L27.5712 38.8091C27.3301 39.1105 26.8493 39.0139 26.7432 38.6428L23.871 28.5901C23.7686 28.2316 24.1 27.9002 24.4585 28.0026L34.5112 30.8748C34.8823 30.9809 34.9789 31.4617 34.6775 31.7028L32.4508 33.4841C32.2297 33.661 32.2114 33.9909 32.4116 34.1912L35.0603 36.8398C35.2459 37.0254 35.2459 37.3263 35.0603 37.5119Z" stroke="#3617CE" stroke-width="1.5" stroke-linecap="round" stroke-linejoin="round"/>
</svg>