<svg width="50" height="40" viewBox="0 0 50 40" fill="none" xmlns="http://www.w3.org/2000/svg">
<g id="Group 144">
<g id="Rectangle 78">
<mask id="path-1-inside-1_854_2764" fill="white">
<path d="M29 18H43C44.6569 18 46 19.3431 46 21V39H29V18Z"/>
</mask>
<path d="M29 16.5H43C45.4853 16.5 47.5 18.5147 47.5 21H44.5C44.5 20.1716 43.8284 19.5 43 19.5H29V16.5ZM46 39H29H46ZM29 39V18V39ZM43 16.5C45.4853 16.5 47.5 18.5147 47.5 21V39H44.5V21C44.5 20.1716 43.8284 19.5 43 19.5V16.5Z" fill="#3617CE" mask="url(#path-1-inside-1_854_2764)"/>
</g>
<g id="Rectangle 79">
<mask id="path-3-inside-2_854_2764" fill="white">
<path d="M4 4C4 1.79086 5.79086 0 8 0H25C27.2091 0 29 1.79086 29 4V39H4V4Z"/>
</mask>
<path d="M2.5 4C2.5 0.962434 4.96243 -1.5 8 -1.5H25C28.0376 -1.5 30.5 0.962434 30.5 4H27.5C27.5 2.61929 26.3807 1.5 25 1.5H8C6.61929 1.5 5.5 2.61929 5.5 4H2.5ZM29 39H4H29ZM2.5 39V4C2.5 0.962434 4.96243 -1.5 8 -1.5V1.5C6.61929 1.5 5.5 2.61929 5.5 4V39H2.5ZM25 -1.5C28.0376 -1.5 30.5 0.962434 30.5 4V39H27.5V4C27.5 2.61929 26.3807 1.5 25 1.5V-1.5Z" fill="#3617CE" mask="url(#path-3-inside-2_854_2764)"/>
</g>
<path id="Line 31" d="M1 39.25H49" stroke="#3617CE" stroke-width="1.5" stroke-linecap="round"/>
<g id="Rectangle 80">
<mask id="path-6-inside-3_854_2764" fill="white">
<rect x="9" y="6" width="6" height="6" rx="1"/>
</mask>
<rect x="9" y="6" width="6" height="6" rx="1" stroke="#3617CE" stroke-width="3" mask="url(#path-6-inside-3_854_2764)"/>
</g>
<g id="Rectangle 81">
<mask id="path-7-inside-4_854_2764" fill="white">
<rect x="18" y="6" width="6" height="6" rx="1"/>
</mask>
<rect x="18" y="6" width="6" height="6" rx="1" stroke="#3617CE" stroke-width="3" mask="url(#path-7-inside-4_854_2764)"/>
</g>
<g id="Rectangle 82">
<mask id="path-8-inside-5_854_2764" fill="white">
<rect x="9" y="16" width="6" height="6" rx="1"/>
</mask>
<rect x="9" y="16" width="6" height="6" rx="1" stroke="#3617CE" stroke-width="3" mask="url(#path-8-inside-5_854_2764)"/>
</g>
<g id="Rectangle 83">
<mask id="path-9-inside-6_854_2764" fill="white">
<rect x="18" y="16" width="6" height="6" rx="1"/>
</mask>
<rect x="18" y="16" width="6" height="6" rx="1" stroke="#3617CE" stroke-width="3" mask="url(#path-9-inside-6_854_2764)"/>
</g>
<g id="Rectangle 84">
<mask id="path-10-inside-7_854_2764" fill="white">
<rect x="9" y="26" width="6" height="6" rx="1"/>
</mask>
<rect x="9" y="26" width="6" height="6" rx="1" stroke="#3617CE" stroke-width="3" mask="url(#path-10-inside-7_854_2764)"/>
</g>
<g id="Rectangle 85">
<mask id="path-11-inside-8_854_2764" fill="white">
<rect x="31" y="23" width="5" height="5" rx="1"/>
</mask>
<rect x="31" y="23" width="5" height="5" rx="1" stroke="#3617CE" stroke-width="3" mask="url(#path-11-inside-8_854_2764)"/>
</g>
<g id="Rectangle 87">
<mask id="path-12-inside-9_854_2764" fill="white">
<rect x="37" y="23" width="5" height="5" rx="1"/>
</mask>
<rect x="37" y="23" width="5" height="5" rx="1" stroke="#3617CE" stroke-width="3" mask="url(#path-12-inside-9_854_2764)"/>
</g>
<g id="Rectangle 86">
<mask id="path-13-inside-10_854_2764" fill="white">
<rect x="31" y="29" width="5" height="5" rx="1"/>
</mask>
<rect x="31" y="29" width="5" height="5" rx="1" stroke="#3617CE" stroke-width="3" mask="url(#path-13-inside-10_854_2764)"/>
</g>
</g>
</svg>
