<svg xmlns="http://www.w3.org/2000/svg" width="20" height="20" viewBox="0 0 20 20" fill="none">
<path d="M12.9918 12.5865C13.3848 12.7175 13.8095 12.5051 13.9405 12.1122C14.0715 11.7192 13.8591 11.2945 13.4662 11.1635L12.9918 12.5865ZM10.4165 10.9375H9.6665C9.6665 11.2603 9.87308 11.5469 10.1793 11.649L10.4165 10.9375ZM11.1665 7.01739C11.1665 6.60318 10.8307 6.26739 10.4165 6.26739C10.0023 6.26739 9.6665 6.60318 9.6665 7.01739H11.1665ZM13.4662 11.1635L10.6537 10.226L10.1793 11.649L12.9918 12.5865L13.4662 11.1635ZM11.1665 10.9375V7.01739H9.6665V10.9375H11.1665ZM17.1665 10C17.1665 13.7279 14.1444 16.75 10.4165 16.75V18.25C14.9729 18.25 18.6665 14.5563 18.6665 10H17.1665ZM10.4165 16.75C6.68858 16.75 3.6665 13.7279 3.6665 10H2.1665C2.1665 14.5563 5.86015 18.25 10.4165 18.25V16.75ZM3.6665 10C3.6665 6.27208 6.68858 3.25 10.4165 3.25V1.75C5.86015 1.75 2.1665 5.44365 2.1665 10H3.6665ZM10.4165 3.25C14.1444 3.25 17.1665 6.27208 17.1665 10H18.6665C18.6665 5.44365 14.9729 1.75 10.4165 1.75V3.25Z" fill="#A9A9A9"/>
</svg>