<svg xmlns="http://www.w3.org/2000/svg" width="40" height="35" viewBox="0 0 40 35" fill="none">
  <g clip-path="url(#clip0_795_1733)">
    <path d="M11.3785 14.1214C14.4531 14.1214 16.9455 11.6225 16.9455 8.54001C16.9455 5.45749 14.4531 2.95862 11.3785 2.95862C8.30396 2.95862 5.81152 5.45749 5.81152 8.54001C5.81152 11.6225 8.30396 14.1214 11.3785 14.1214Z" stroke="#1D1D1B" stroke-width="1.5" stroke-linejoin="round"/>
    <path d="M21.8044 26.6408C21.8044 27.093 21.7786 27.5452 21.7529 27.9974H1.00546C0.979683 27.5452 0.966797 27.093 0.966797 26.6408C0.966797 26.447 0.966797 26.279 0.966797 26.0852C1.08278 21.6925 2.68071 17.8036 5.10339 15.31C5.14205 15.2584 5.20649 15.1938 5.25803 15.1421C5.29669 15.1808 5.32247 15.1938 5.36113 15.2196C6.90752 16.6279 8.90494 17.4935 11.1343 17.5581C11.2116 17.5581 11.3018 17.5581 11.3792 17.5581C11.4565 17.5581 11.5467 17.5581 11.624 17.5581C13.8405 17.5064 15.8508 16.6279 17.3972 15.2196C17.4359 15.1938 17.4616 15.1808 17.5003 15.1421C17.5518 15.1938 17.6163 15.2584 17.6549 15.31C20.0647 17.8036 21.6627 21.6925 21.7915 26.0852C21.7915 26.279 21.7915 26.447 21.7915 26.6408H21.8044Z" stroke="#1D1D1B" stroke-width="1.5" stroke-linejoin="round"/>
    <path d="M32.332 27.3127V34.031H39.0331V27.3127H32.332Z" stroke="#3617CE" stroke-width="1.5" stroke-linejoin="round"/>
    <path d="M32.332 14.1473V20.8656H39.0331V14.1473H32.332Z" stroke="#3617CE" stroke-width="1.5" stroke-linejoin="round"/>
    <path d="M32.332 0.96903V7.68738H39.0331V0.96903H32.332Z" stroke="#3617CE" stroke-width="1.5" stroke-linejoin="round"/>
    <path d="M32.3326 30.6847H28.0156V4.32812H32.3326" stroke="#1D1D1B" stroke-width="1.5" stroke-linejoin="round"/>
    <path d="M19.3555 17.5065H32.3323" stroke="#1D1D1B" stroke-width="1.5" stroke-linejoin="round"/>
  </g>
  <defs>
    <clipPath id="clip0_795_1733">
      <rect width="40" height="35" fill="white"/>
    </clipPath>
  </defs>
</svg>