<svg width="65" height="64" viewBox="0 0 65 64" fill="none" xmlns="http://www.w3.org/2000/svg">
<g id="Group 83">
<circle id="Ellipse 15" cx="32.5" cy="32" r="32" fill="#FFEC00"/>
<g id="Subtract">
<path d="M28.6226 28.7131L29.5086 31.23H27.7367L28.6226 28.7131Z" fill="black"/>
<path fill-rule="evenodd" clip-rule="evenodd" d="M16.5 30.1226C16.5 23.4275 23.3836 18 31.875 18C40.3664 18 47.25 23.4275 47.25 30.1226C47.25 36.8178 40.3664 42.2452 31.875 42.2452C30.943 42.2452 30.0304 42.18 29.1442 42.0545C28.257 42.6797 23.1314 46.2801 22.6476 46.3477C22.6476 46.3477 22.4492 46.4248 22.2806 46.3255C22.1119 46.2261 22.1425 45.9656 22.1425 45.9656C22.1933 45.619 23.4712 41.206 23.7067 40.3938C19.3778 38.2492 16.5 34.4511 16.5 30.1226ZM22.4874 33.5073C22.4874 33.9745 22.8852 34.3544 23.3744 34.3544C23.8636 34.3544 24.2615 33.9745 24.2615 33.5073V28.2377H25.6455C26.1254 28.2377 26.516 27.848 26.516 27.3691C26.516 26.8903 26.1255 26.5006 25.6455 26.5006H21.1034C20.6235 26.5006 20.2329 26.8903 20.2329 27.3691C20.2329 27.848 20.6233 28.2377 21.1034 28.2377H22.4874V33.5073ZM30.4143 33.9511C30.4996 34.1927 30.7825 34.3429 31.1524 34.3429C31.347 34.343 31.5393 34.3013 31.7163 34.2206C31.9608 34.1081 32.1958 33.7978 31.9259 32.9593L29.805 27.3771C29.6553 26.9515 29.2013 26.5138 28.6219 26.5007C28.0442 26.5139 27.5901 26.9515 27.4407 27.3762L25.3189 32.9609C25.0496 33.7975 25.2846 34.1077 25.5292 34.2205C25.7061 34.3013 25.8984 34.3431 26.093 34.3429C26.4629 34.3429 26.7457 34.1928 26.8307 33.9517L27.2702 32.8011L29.975 32.8012L30.4143 33.9511ZM32.5033 33.412C32.5033 33.8602 32.8846 34.2251 33.3534 34.2251H36.1993C36.668 34.2251 37.0493 33.8602 37.0493 33.412C37.0493 32.9637 36.668 32.5989 36.1993 32.5989H34.3143V27.3876C34.3143 26.8984 33.9081 26.5006 33.4088 26.5006C32.9096 26.5006 32.5033 26.8984 32.5033 27.3876V33.412ZM37.3944 33.4559C37.3944 33.9451 37.7922 34.3429 38.2814 34.3429C38.5166 34.3426 38.7422 34.249 38.9085 34.0826C39.0749 33.9162 39.1684 33.6907 39.1687 33.4554V31.5201L39.4765 31.2123L41.5567 33.9686C41.6391 34.0786 41.7461 34.1678 41.8691 34.229C41.9922 34.2902 42.1278 34.3218 42.2653 34.3211C42.458 34.3216 42.6454 34.2587 42.7988 34.1421C42.892 34.0722 42.9705 33.9845 43.0295 33.8841C43.0886 33.7837 43.1272 33.6726 43.143 33.5571C43.1595 33.4418 43.153 33.3243 43.1238 33.2115C43.0945 33.0987 43.0432 32.9928 42.9727 32.9L40.7893 30.0074L42.8107 27.9864C42.9496 27.8472 43.0193 27.6555 43.0064 27.4463C42.9937 27.2389 42.901 27.0392 42.7456 26.8839C42.579 26.7175 42.3566 26.622 42.1352 26.622C41.9454 26.622 41.7705 26.692 41.6432 26.8193L39.1684 29.2941V27.3876C39.1684 26.8984 38.7706 26.5006 38.2814 26.5006C37.7922 26.5006 37.3944 26.8984 37.3944 27.3876V33.4559Z" fill="black"/>
</g>
</g>
</svg>
