<svg xmlns="http://www.w3.org/2000/svg" width="24" height="24" viewBox="0 0 24 24" fill="none">
  <path fill-rule="evenodd" clip-rule="evenodd" d="M12.0206 2C11.6896 2 11.3621 2.01608 11.0389 2.04753L11.1842 3.54047C11.4592 3.51372 11.7382 3.5 12.0206 3.5H12.7706V2H12.0206ZM9.11113 2.42912C8.47698 2.62124 7.86951 2.87447 7.2956 3.18186L8.00383 4.50414C8.49159 4.24288 9.0076 4.02781 9.54606 3.86468L9.11113 2.42912ZM5.66321 4.27453C5.15631 4.691 4.69106 5.15625 4.27458 5.66314L5.43356 6.61538C5.78802 6.18398 6.18403 5.78797 6.61544 5.43352L5.66321 4.27453ZM3.18189 7.29552C2.87449 7.86942 2.62126 8.47689 2.42913 9.11104L3.86469 9.54598C4.02783 9.00753 4.2429 8.49152 4.50416 8.00376L3.18189 7.29552ZM2.04753 11.0389C2.01608 11.362 2 11.6895 2 12.0205C2 12.3515 2.01608 12.679 2.04753 13.0022L3.54047 12.8569C3.51371 12.5819 3.5 12.3029 3.5 12.0205C3.5 11.7381 3.51371 11.4591 3.54048 11.1841L2.04753 11.0389ZM2.42913 14.93C2.62126 15.5642 2.87449 16.1716 3.18189 16.7455L4.50416 16.0373C4.2429 15.5495 4.02783 15.0335 3.86469 14.4951L2.42913 14.93ZM4.27458 18.3779C4.69106 18.8848 5.15631 19.3501 5.66321 19.7665L6.61544 18.6075C6.18403 18.2531 5.78801 17.8571 5.43356 17.4257L4.27458 18.3779ZM7.2956 20.8592C7.86951 21.1666 8.47698 21.4198 9.11113 21.6119L9.54606 20.1764C9.0076 20.0132 8.49159 19.7982 8.00383 19.5369L7.2956 20.8592ZM11.0389 21.9935C11.3621 22.025 11.6896 22.0411 12.0206 22.0411H12.7706V20.5411H12.0206C11.7382 20.5411 11.4592 20.5273 11.1842 20.5006L11.0389 21.9935ZM13.6188 3.64954C17.5606 4.39725 20.541 7.86164 20.541 12.0205C20.541 16.365 17.2888 19.9511 13.0864 20.4751L13.272 21.9635C18.2158 21.3471 22.041 17.1311 22.041 12.0205C22.041 7.12768 18.535 3.05533 13.8984 2.17582L13.6188 3.64954Z" fill="#A9A9A9"/>
  <path d="M11.7334 16.9558H9.24448C8.55717 16.9558 8 16.3986 8 15.7113L8.00005 8.24447C8.00005 7.55717 8.55722 7 9.24453 7H14.8448C15.5321 7 16.0893 7.55717 16.0893 8.24448V10.7334M10.178 9.48896H13.9115M10.178 11.3557H13.9115M10.178 13.2224H12.0448M13.6003 15.24L16.2402 12.6001L18.0002 14.3601L15.3602 17H13.6003V15.24Z" stroke="#A9A9A9" stroke-width="1.5" stroke-linecap="round" stroke-linejoin="round"/>
</svg>