<svg xmlns="http://www.w3.org/2000/svg" width="24" height="24" viewBox="0 0 24 24" fill="none">
  <circle cx="12" cy="12" r="9.25" stroke="#A9A9A9" stroke-width="1.5"/>
  <path fill-rule="evenodd" clip-rule="evenodd" d="M15.8013 9.27973C16.0944 8.98697 16.0944 8.51232 15.8013 8.21957C15.5083 7.92681 15.0332 7.92681 14.7402 8.21957L12.0112 10.9459L9.28228 8.21957C8.98925 7.92681 8.51415 7.92681 8.22112 8.21957C7.92809 8.51232 7.92809 8.98697 8.22112 9.27973L10.9501 12.0061L8.21977 14.7338C7.92674 15.0266 7.92674 15.5012 8.21977 15.794C8.5128 16.0868 8.9879 16.0868 9.28093 15.794L12.0112 13.0663L14.7415 15.794C15.0345 16.0868 15.5096 16.0868 15.8027 15.794C16.0957 15.5012 16.0957 15.0266 15.8027 14.7338L13.0724 12.0061L15.8013 9.27973Z" fill="#A9A9A9"/>
</svg>