<svg xmlns="http://www.w3.org/2000/svg" width="24" height="24" viewBox="0 0 24 24" fill="none">
<path d="M11.8056 3.43355L11.2281 2.96674L11.8056 3.43354C11.9056 3.30976 12.0944 3.30976 12.1944 3.43354L12.7719 2.96674L12.1944 3.43355L13.3253 4.83258C13.7605 5.37094 14.4722 5.60216 15.1407 5.42242L16.8779 4.95531C17.0317 4.91399 17.1843 5.02491 17.1925 5.18387L17.2851 6.98045C17.3208 7.67179 17.7606 8.27714 18.4071 8.52467L20.0871 9.16791C20.2357 9.22483 20.2941 9.40431 20.2073 9.53773L19.2262 11.0456C18.8486 11.6259 18.8486 12.3741 19.2262 12.9544L20.2073 14.4623C20.2941 14.5957 20.2358 14.7752 20.0871 14.8321L18.4071 15.4753C17.7606 15.7229 17.3208 16.3282 17.2851 17.0196L17.1925 18.8161C17.1843 18.9751 17.0317 19.086 16.8779 19.0447L15.1407 18.5776C14.4722 18.3978 13.7605 18.6291 13.3253 19.1674L12.1944 20.5665C12.0944 20.6902 11.9056 20.6902 11.8056 20.5665L10.6747 19.1674C10.2395 18.6291 9.52783 18.3978 8.85931 18.5776L7.12205 19.0447C6.96835 19.086 6.81567 18.9751 6.80747 18.8161L6.71487 17.0196C6.67924 16.3282 6.23942 15.7229 5.59293 15.4753L3.9129 14.8321C3.76425 14.7752 3.70593 14.5957 3.79274 14.4623L4.77382 12.9544C5.15135 12.3741 5.15135 11.6259 4.77382 11.0456L3.79274 9.53773C3.70593 9.40431 3.76425 9.22483 3.9129 9.16791L5.59293 8.52467C6.23942 8.27714 6.67924 7.67179 6.71487 6.98045L6.80747 5.18387C6.81567 5.02491 6.96835 4.91399 7.12206 4.95531L8.85932 5.42242C9.52783 5.60216 10.2395 5.37094 10.6747 4.83258L11.8056 3.43355Z" stroke="black" stroke-width="1.5"/>
<path d="M11.7758 8.14891C11.8675 7.9631 12.1325 7.9631 12.2242 8.14891L12.8581 9.43343C13.113 9.94993 13.6058 10.3079 14.1758 10.3908L15.5933 10.5967C15.7984 10.6265 15.8803 10.8785 15.7319 11.0232L14.7061 12.023C14.2937 12.4251 14.1055 13.0043 14.2028 13.572L14.445 14.9838C14.48 15.1881 14.2657 15.3438 14.0822 15.2474L12.8143 14.5808C12.3045 14.3128 11.6955 14.3128 11.1857 14.5808L9.91776 15.2474C9.73435 15.3438 9.51999 15.1881 9.55502 14.9838L9.79716 13.572C9.89453 13.0043 9.70632 12.4251 9.29387 12.023L8.26812 11.0232C8.11974 10.8785 8.20162 10.6265 8.40667 10.5967L9.82423 10.3908C10.3942 10.3079 10.887 9.94993 11.1419 9.43343L10.4693 9.10151L11.1419 9.43343L11.7758 8.14891Z" stroke="black" stroke-width="1.5"/>
</svg>