<svg width="32" height="32" viewBox="0 0 32 32" fill="none" xmlns="http://www.w3.org/2000/svg">
<g id="icon/editmov 32">
<path id="Icon" d="M15.0082 6.98406H8.75309C6.68031 6.98406 5 8.66432 5 10.737V23.247C5 25.3197 6.68031 27 8.75309 27H21.2634C23.3361 27 25.0165 25.3197 25.0165 23.247L25.0165 16.992M11.2551 20.7449L15.8068 19.8278C16.0484 19.7792 16.2703 19.6602 16.4445 19.4858L26.6338 9.29128C27.1224 8.8025 27.122 8.01022 26.6331 7.52186L24.4746 5.36591C23.9859 4.87774 23.194 4.87807 22.7057 5.36665L12.5153 15.5623C12.3414 15.7363 12.2227 15.9577 12.1739 16.1988L11.2551 20.7449Z" stroke="#797979" stroke-width="1.5" stroke-linecap="round" stroke-linejoin="round"/>
</g>
</svg>
