<svg xmlns="http://www.w3.org/2000/svg" width="40" height="36" viewBox="0 0 40 36" fill="none">
  <path d="M23.1818 1.26538H4.26562C2.60877 1.26538 1.26562 2.60853 1.26562 4.26538V31.2676C1.26562 32.9244 2.60877 34.2676 4.26563 34.2676H23.1818C24.8386 34.2676 26.1818 32.9244 26.1818 31.2676V4.26538C26.1818 2.60853 24.8386 1.26538 23.1818 1.26538Z" stroke="#1D1D1B" stroke-width="1.5" stroke-linejoin="round"/>
  <path d="M36.7412 12.9965L33.9912 10.2465L20.3815 23.8562L23.1315 26.6062L36.7412 12.9965Z" fill="#F7F8FB" stroke="#1D1D1B" stroke-width="1.5" stroke-linejoin="round"/>
  <path d="M38.5185 11.2182L35.7676 8.46729L33.9869 10.2479L36.7379 12.9989L38.5185 11.2182Z" stroke="#1D1D1B" stroke-width="1.5" stroke-linejoin="round"/>
  <path d="M23 26.7189L20.2811 24L18 29L23 26.7189Z" stroke="#1D1D1B" stroke-width="1.5" stroke-linejoin="round"/>
  <path d="M6 8H15" stroke="#3617CE" stroke-width="1.5" stroke-linecap="round" stroke-linejoin="round"/>
  <path d="M6 14H21" stroke="#3617CE" stroke-width="1.5" stroke-linecap="round" stroke-linejoin="round"/>
</svg>