<svg width="21" height="20" viewBox="0 0 21 20" fill="none" xmlns="http://www.w3.org/2000/svg">
<g id="clock-01">
<path id="Icon" d="M13.4918 12.5865C13.8848 12.7175 14.3095 12.5051 14.4405 12.1122C14.5715 11.7192 14.3591 11.2945 13.9662 11.1635L13.4918 12.5865ZM10.9165 10.9375H10.1665C10.1665 11.2603 10.3731 11.5469 10.6793 11.649L10.9165 10.9375ZM11.6665 7.01739C11.6665 6.60318 11.3307 6.26739 10.9165 6.26739C10.5023 6.26739 10.1665 6.60318 10.1665 7.01739H11.6665ZM13.9662 11.1635L11.1537 10.226L10.6793 11.649L13.4918 12.5865L13.9662 11.1635ZM11.6665 10.9375V7.01739H10.1665V10.9375H11.6665ZM17.6665 10C17.6665 13.7279 14.6444 16.75 10.9165 16.75V18.25C15.4729 18.25 19.1665 14.5563 19.1665 10H17.6665ZM10.9165 16.75C7.18858 16.75 4.1665 13.7279 4.1665 10H2.6665C2.6665 14.5563 6.36015 18.25 10.9165 18.25V16.75ZM4.1665 10C4.1665 6.27208 7.18858 3.25 10.9165 3.25V1.75C6.36015 1.75 2.6665 5.44365 2.6665 10H4.1665ZM10.9165 3.25C14.6444 3.25 17.6665 6.27208 17.6665 10H19.1665C19.1665 5.44365 15.4729 1.75 10.9165 1.75V3.25Z" fill="#A9A9A9"/>
</g>
</svg>
