<svg xmlns="http://www.w3.org/2000/svg" width="24" height="24" viewBox="0 0 24 24" fill="none">
<path fill-rule="evenodd" clip-rule="evenodd" d="M17.5 11C17.5 14.5899 14.5899 17.5 11 17.5C7.41015 17.5 4.5 14.5899 4.5 11C4.5 7.41015 7.41015 4.5 11 4.5C14.5899 4.5 17.5 7.41015 17.5 11ZM16.5122 16.798C15.0773 18.1625 13.1364 19 11 19C6.58172 19 3 15.4183 3 11C3 6.58172 6.58172 3 11 3C15.4183 3 19 6.58172 19 11C19 12.7407 18.4441 14.3515 17.5001 15.6646L21.3091 19.4736C21.602 19.7665 21.602 20.2413 21.3091 20.5342C21.0162 20.8271 20.5413 20.8271 20.2484 20.5342L16.5122 16.798Z" fill="black"/>
</svg>