<svg width="24" height="24" viewBox="0 0 24 24" fill="none" xmlns="http://www.w3.org/2000/svg">
<g id="&#235;&#184;&#148;&#235;&#166;&#191;XXXX">
<path id="Union" fill-rule="evenodd" clip-rule="evenodd" d="M8.70704 7.29289C8.31651 6.90237 7.68335 6.90237 7.29282 7.29289C6.9023 7.68342 6.9023 8.31658 7.29282 8.70711L10.8279 12.2422L7.29192 15.7782C6.90139 16.1687 6.90139 16.8019 7.29192 17.1924C7.68244 17.5829 8.31561 17.5829 8.70613 17.1924L12.2421 13.6564L15.7781 17.1924C16.1686 17.5829 16.8018 17.5829 17.1923 17.1924C17.5828 16.8019 17.5828 16.1687 17.1923 15.7782L13.6563 12.2422L17.1914 8.70711C17.5819 8.31658 17.5819 7.68342 17.1914 7.29289C16.8009 6.90237 16.1677 6.90237 15.7772 7.29289L12.2421 10.828L8.70704 7.29289Z" fill="#FF404E"/>
</g>
</svg>
