<svg width="24" height="24" viewBox="0 0 24 24" fill="none" xmlns="http://www.w3.org/2000/svg">
<path fill-rule="evenodd" clip-rule="evenodd" d="M12.1256 2C11.7911 2 11.4602 2.01625 11.1336 2.04803L11.2789 3.54097C11.5573 3.51388 11.8397 3.5 12.1256 3.5H12.8756V2H12.1256ZM9.18561 2.43361C8.54483 2.62775 7.93099 2.88362 7.35108 3.19423L8.0593 4.51651C8.55308 4.25204 9.07545 4.03432 9.62054 3.86917L9.18561 2.43361ZM5.70158 4.29836C5.18937 4.71919 4.71924 5.18931 4.29841 5.70151L5.45738 6.65376C5.8162 6.21704 6.21709 5.81616 6.65381 5.45734L5.70158 4.29836ZM3.19426 7.35099C2.88365 7.93091 2.62777 8.54474 2.43362 9.18553L3.86918 9.62047C4.03433 9.07537 4.25205 8.55301 4.51653 8.05923L3.19426 7.35099ZM2.04803 11.1335C2.01624 11.4601 2 11.791 2 12.1255C2 12.46 2.01624 12.7909 2.04803 13.1175L3.54097 12.9722C3.51388 12.6938 3.5 12.4114 3.5 12.1255C3.5 11.8396 3.51388 11.5572 3.54097 11.2788L2.04803 11.1335ZM2.43362 15.0655C2.62777 15.7062 2.88365 16.3201 3.19426 16.9L4.51653 16.1917C4.25205 15.698 4.03433 15.1756 3.86918 14.6305L2.43362 15.0655ZM4.29841 18.5495C4.71924 19.0617 5.18937 19.5318 5.70158 19.9526L6.65381 18.7936C6.21709 18.4348 5.8162 18.0339 5.45738 17.5972L4.29841 18.5495ZM7.35108 21.0567C7.93099 21.3674 8.54482 21.6232 9.18561 21.8174L9.62054 20.3818C9.07545 20.2167 8.55308 19.9989 8.0593 19.7345L7.35108 21.0567ZM11.1336 22.203C11.4602 22.2347 11.7911 22.251 12.1256 22.251H12.8756V20.751H12.1256C11.8397 20.751 11.5573 20.7371 11.2789 20.71L11.1336 22.203ZM13.7438 3.65138C17.7341 4.40831 20.7512 7.91536 20.7512 12.1255C20.7512 16.5235 17.4589 20.1537 13.2048 20.6842L13.3904 22.1727C18.386 21.5497 22.2512 17.2896 22.2512 12.1255C22.2512 7.1814 18.7085 3.06639 14.0233 2.17766L13.7438 3.65138Z" fill="#A9A9A9"/>
<path d="M7.625 9L10.125 16L12 9L13.875 16L16.375 9" stroke="#A9A9A9" stroke-width="1.5" stroke-linecap="round" stroke-linejoin="round"/>
<path d="M7 11.975H17" stroke="#A9A9A9" stroke-width="1.5" stroke-linecap="round"/>
</svg>
