<svg width="25" height="24" viewBox="0 0 25 24" fill="none" xmlns="http://www.w3.org/2000/svg">
<g id="icon/experiencel24">
<path id="Polygon 6" d="M18.2576 14.5682V14.5682C19.8843 13.6692 19.8843 11.3308 18.2576 10.4318L7.45106 4.45979C5.45158 3.35482 3 4.80103 3 7.08552L3 18.0663C3 20.2826 5.3784 21.6856 7.31818 20.6136V20.6136" stroke="#3617CE" stroke-width="1.5" stroke-linecap="round"/>
<path id="Icon" d="M9.78429 17.8935L8.97139 18.7172M8.88644 15.6967H7.73682M8.97139 12.6768L9.78429 13.5005M11.9523 11.4255L11.9523 12.5904M14.9327 12.6768L14.1198 13.5005M17.6625 20.4411L16.7653 21.3502C16.6662 21.4506 16.5055 21.4506 16.4064 21.3502L14.992 19.917C14.8851 19.8086 14.7089 19.8185 14.6144 19.9382L13.6632 21.1431C13.5344 21.3062 13.2776 21.2539 13.221 21.0531L11.6872 15.6133C11.6325 15.4193 11.8095 15.24 12.0009 15.2954L17.3692 16.8496C17.5674 16.907 17.619 17.1672 17.4581 17.2977L16.269 18.2616C16.1509 18.3573 16.1411 18.5358 16.2481 18.6442L17.6625 20.0775C17.7616 20.1779 17.7616 20.3407 17.6625 20.4411Z" stroke="#3617CE" stroke-width="1.5" stroke-linecap="round" stroke-linejoin="round"/>
</g>
</svg>
