<svg width="65" height="64" viewBox="0 0 65 64" fill="none" xmlns="http://www.w3.org/2000/svg">
<g id="Star">
<path id="Star 5" d="M28.5956 2.90425C29.6382 -0.968084 35.1323 -0.968083 36.1749 2.90425L40.9557 20.6603C41.3193 22.0109 42.3743 23.0659 43.725 23.4296L61.481 28.2104C65.3533 29.253 65.3533 34.747 61.481 35.7896L43.725 40.5704C42.3743 40.9341 41.3193 41.9891 40.9557 43.3397L36.1749 61.0958C35.1323 64.9681 29.6382 64.9681 28.5956 61.0957L23.8148 43.3397C23.4512 41.9891 22.3962 40.9341 21.0455 40.5704L3.2895 35.7896C-0.58283 34.747 -0.582829 29.253 3.28951 28.2104L21.0455 23.4296C22.3962 23.0659 23.4512 22.0109 23.8148 20.6603L28.5956 2.90425Z" fill="#EAF6FE"/>
</g>
</svg>
