<svg width="56" height="54" viewBox="0 0 56 54" fill="none" xmlns="http://www.w3.org/2000/svg">
<g id="Group 63">
<path id="Line 2" d="M18 52H38" stroke="#303030" stroke-width="3" stroke-linecap="round"/>
<rect id="Rectangle 34" x="1.5" y="11.5" width="53" height="33" rx="2.5" stroke="#303030" stroke-width="3"/>
<path id="Vector" d="M32.4961 27.6248L32.4631 27.5951L32.4917 27.5608C33.1349 26.8028 33.5215 25.8765 33.5215 24.9525C33.5215 24.7059 33.5112 24.4585 33.4693 24.2249C33.1408 22.3883 31.5766 21.0038 29.7097 21H22V24.2188H29.1386C29.7795 24.2188 30.2999 24.7569 30.2999 25.4213C30.2999 26.0858 29.7802 26.6239 29.1386 26.6239H25.2466V24.9426L22 26.6239V35H29.9485C31.7927 35 33.3524 33.7168 33.8405 31.9677C33.9434 31.5986 34 31.2089 34 30.8055C34 29.6098 33.423 28.4506 32.4969 27.6248H32.4961ZM29.2657 31.8048H25.2466V29.2033H29.2657C29.9596 29.2033 30.5219 29.7856 30.5219 30.5041C30.5219 31.2226 29.9596 31.8048 29.2657 31.8048Z" fill="#491BC7"/>
<path id="Line 3" d="M20.2668 1.1968C19.8813 0.463536 19.0016 0.228714 18.302 0.67231C17.6023 1.11591 17.3477 2.06994 17.7332 2.8032L20.2668 1.1968ZM21.9391 10.8032L22.6371 12.1309L25.1708 10.5245L24.4728 9.1968L21.9391 10.8032ZM17.7332 2.8032L21.9391 10.8032L24.4728 9.1968L20.2668 1.1968L17.7332 2.8032Z" fill="#303030"/>
<path id="Line 4" d="M35.7332 1.1968C36.1187 0.463536 36.9984 0.228714 37.698 0.67231C38.3977 1.11591 38.6523 2.06994 38.2668 2.8032L35.7332 1.1968ZM34.0609 10.8032L33.3629 12.1309L30.8292 10.5245L31.5272 9.1968L34.0609 10.8032ZM38.2668 2.8032L34.0609 10.8032L31.5272 9.1968L35.7332 1.1968L38.2668 2.8032Z" fill="#303030"/>
</g>
</svg>
