<svg width="72" height="72" viewBox="0 0 72 72" fill="none" xmlns="http://www.w3.org/2000/svg">
<path d="M26 61H46" stroke="#303030" stroke-width="3" stroke-linecap="round"/>
<rect x="9.5" y="20.5" width="53" height="33" rx="2.5" stroke="#303030" stroke-width="3"/>
<path d="M28.2668 10.1968C27.8813 9.46354 27.0016 9.22871 26.302 9.67231C25.6023 10.1159 25.3477 11.0699 25.7332 11.8032L28.2668 10.1968ZM29.9391 19.8032L30.6371 21.1309L33.1708 19.5245L32.4728 18.1968L29.9391 19.8032ZM25.7332 11.8032L29.9391 19.8032L32.4728 18.1968L28.2668 10.1968L25.7332 11.8032Z" fill="#303030"/>
<path d="M43.7332 10.1968C44.1187 9.46354 44.9984 9.22871 45.698 9.67231C46.3977 10.1159 46.6523 11.0699 46.2668 11.8032L43.7332 10.1968ZM42.0609 19.8032L41.3629 21.1309L38.8292 19.5245L39.5272 18.1968L42.0609 19.8032ZM46.2668 11.8032L42.0609 19.8032L39.5272 18.1968L43.7332 10.1968L46.2668 11.8032Z" fill="#303030"/>
<path d="M49.0681 41C48.5134 41 48.016 40.9143 47.5757 40.7429C47.1355 40.5673 46.7613 40.3252 46.4532 40.0167C46.1494 39.7082 45.9161 39.3505 45.7532 38.9434C45.5903 38.5321 45.5089 38.0951 45.5089 37.6324V37.3753C45.5089 36.8483 45.5859 36.3663 45.74 35.9293C45.8941 35.4923 46.1142 35.1131 46.4003 34.7918C46.6909 34.4704 47.0431 34.2241 47.4569 34.0527C47.8707 33.877 48.3373 33.7892 48.8568 33.7892C49.363 33.7892 49.8121 33.8706 50.2039 34.0334C50.5957 34.1962 50.9236 34.4276 51.1878 34.7275C51.4563 35.0274 51.6588 35.3873 51.7953 35.8072C51.9318 36.2228 52 36.6855 52 37.1954V37.9666H46.3211V36.7326H50.1312V36.5913C50.1312 36.3342 50.0828 36.105 49.986 35.9036C49.8935 35.6979 49.7526 35.5351 49.5634 35.4152C49.3741 35.2952 49.1319 35.2352 48.837 35.2352C48.5861 35.2352 48.3703 35.2888 48.1898 35.3959C48.0094 35.503 47.8619 35.653 47.7474 35.8458C47.6374 36.0386 47.5537 36.2656 47.4965 36.527C47.4437 36.7841 47.4173 37.0668 47.4173 37.3753V37.6324C47.4173 37.9109 47.4569 38.168 47.5361 38.4036C47.6198 38.6392 47.7364 38.8428 47.8861 39.0141C48.0402 39.1855 48.2251 39.3183 48.4408 39.4126C48.6609 39.5069 48.9096 39.554 49.187 39.554C49.5303 39.554 49.8495 39.4897 50.1444 39.3612C50.4438 39.2284 50.7013 39.0291 50.917 38.7635L51.8415 39.7404C51.6918 39.9503 51.4871 40.1517 51.2274 40.3445C50.9721 40.5373 50.6639 40.6958 50.3029 40.8201C49.9419 40.94 49.5303 41 49.0681 41Z" fill="#3617CE"/>
<path d="M44.208 31V40.8715H42.2996V31H44.208Z" fill="#3617CE"/>
<path d="M34.5935 31H36.4953V39.2776L36.3038 40.8715H34.5935V31ZM41.0186 37.3239V37.4589C41.0186 37.9773 40.9613 38.4529 40.8469 38.8856C40.7368 39.3183 40.5651 39.6932 40.3318 40.0103C40.0985 40.3231 39.808 40.5673 39.4602 40.7429C39.1168 40.9143 38.7118 41 38.2451 41C37.8093 41 37.4307 40.9143 37.1094 40.7429C36.7924 40.5716 36.5261 40.3295 36.3104 40.0167C36.0946 39.7039 35.9208 39.3376 35.7887 38.9177C35.6566 38.4979 35.5576 38.0394 35.4915 37.5424V37.2468C35.5576 36.7498 35.6566 36.2913 35.7887 35.8715C35.9208 35.4516 36.0946 35.0853 36.3104 34.7725C36.5261 34.4597 36.7924 34.2177 37.1094 34.0463C37.4263 33.8749 37.8005 33.7892 38.2319 33.7892C38.703 33.7892 39.1124 33.877 39.4602 34.0527C39.8124 34.2241 40.1029 34.4683 40.3318 34.7853C40.5651 35.0981 40.7368 35.4709 40.8469 35.9036C40.9613 36.332 41.0186 36.8055 41.0186 37.3239ZM39.1168 37.4589V37.3239C39.1168 37.0411 39.0948 36.7755 39.0508 36.527C39.0111 36.2742 38.9407 36.0536 38.8395 35.865C38.7382 35.6722 38.5995 35.5201 38.4234 35.4087C38.2518 35.2973 38.0294 35.2416 37.7565 35.2416C37.4968 35.2416 37.2767 35.2845 37.0962 35.3702C36.9157 35.4559 36.766 35.5758 36.6471 35.7301C36.5327 35.8843 36.4468 36.0686 36.3896 36.2828C36.3324 36.4927 36.2972 36.7241 36.2839 36.9769V37.8188C36.2972 38.1572 36.3544 38.4572 36.4556 38.7185C36.5613 38.9756 36.7198 39.1791 36.9311 39.329C37.1468 39.4747 37.4263 39.5476 37.7697 39.5476C38.0382 39.5476 38.2606 39.4961 38.4366 39.3933C38.6127 39.2905 38.7492 39.1448 38.8461 38.9563C38.9473 38.7678 39.0177 38.5471 39.0574 38.2943C39.097 38.0373 39.1168 37.7588 39.1168 37.4589Z" fill="#3617CE"/>
<path d="M31.2125 39.3033V36.2057C31.2125 35.9829 31.1751 35.7922 31.1003 35.6337C31.0255 35.4709 30.9088 35.3445 30.7503 35.2545C30.5962 35.1645 30.3959 35.1195 30.1494 35.1195C29.9381 35.1195 29.7554 35.156 29.6013 35.2288C29.4472 35.2973 29.3284 35.398 29.2447 35.5308C29.1611 35.6594 29.1193 35.8115 29.1193 35.9871H27.2175C27.2175 35.6915 27.2879 35.4109 27.4288 35.1452C27.5697 34.8796 27.7744 34.6461 28.0429 34.4447C28.3115 34.2391 28.6306 34.0784 29.0004 33.9627C29.3746 33.847 29.7928 33.7892 30.2551 33.7892C30.8097 33.7892 31.3028 33.8792 31.7342 34.0591C32.1656 34.2391 32.5046 34.509 32.7511 34.8689C33.0021 35.2288 33.1275 35.6787 33.1275 36.2185V39.1941C33.1275 39.5754 33.1517 39.8882 33.2002 40.1324C33.2486 40.3723 33.319 40.5823 33.4115 40.7622V40.8715H31.4899C31.3974 40.6829 31.327 40.4473 31.2786 40.1645C31.2346 39.8775 31.2125 39.5904 31.2125 39.3033ZM31.4635 36.6362L31.4767 37.6838H30.4135C30.1626 37.6838 29.9447 37.7117 29.7598 37.7674C29.5749 37.8231 29.423 37.9023 29.3042 38.0051C29.1853 38.1037 29.0973 38.2194 29.04 38.3522C28.9872 38.485 28.9608 38.6307 28.9608 38.7892C28.9608 38.9477 28.9982 39.0913 29.073 39.2198C29.1479 39.344 29.2557 39.4426 29.3966 39.5154C29.5375 39.584 29.7026 39.6183 29.8919 39.6183C30.178 39.6183 30.4267 39.5626 30.6381 39.4512C30.8494 39.3398 31.0122 39.2027 31.1267 39.0398C31.2456 38.877 31.3072 38.7228 31.3116 38.5771L31.8135 39.3612C31.743 39.5368 31.6462 39.7189 31.5229 39.9075C31.404 40.096 31.2522 40.2738 31.0673 40.4409C30.8824 40.6037 30.6601 40.7386 30.4003 40.8458C30.1406 40.9486 29.8324 41 29.4759 41C29.0224 41 28.6108 40.9122 28.241 40.7365C27.8756 40.5566 27.5851 40.3102 27.3694 39.9974C27.1581 39.6804 27.0524 39.3205 27.0524 38.9177C27.0524 38.5536 27.1229 38.2301 27.2637 37.9473C27.4046 37.6645 27.6115 37.4267 27.8844 37.2339C28.1618 37.0368 28.5074 36.889 28.9212 36.7905C29.335 36.6877 29.8148 36.6362 30.3607 36.6362H31.4635Z" fill="#3617CE"/>
<path d="M23.2555 39.554C23.4888 39.554 23.6957 39.5111 23.8762 39.4254C24.0567 39.3355 24.1976 39.2112 24.2988 39.0527C24.4045 38.8899 24.4595 38.6992 24.4639 38.4807H26.2534C26.249 38.9692 26.1147 39.404 25.8506 39.7853C25.5865 40.1624 25.2321 40.4602 24.7875 40.6787C24.3428 40.8929 23.8454 41 23.2951 41C22.7404 41 22.2562 40.91 21.8423 40.7301C21.4329 40.5501 21.0918 40.3016 20.8188 39.9846C20.5459 39.6632 20.3412 39.2905 20.2047 38.8663C20.0682 38.4379 20 37.9794 20 37.491V37.3046C20 36.8119 20.0682 36.3535 20.2047 35.9293C20.3412 35.5009 20.5459 35.1281 20.8188 34.8111C21.0918 34.4897 21.4329 34.2391 21.8423 34.0591C22.2518 33.8792 22.7316 33.7892 23.2819 33.7892C23.8674 33.7892 24.3802 33.8985 24.8205 34.117C25.2651 34.3355 25.6129 34.6482 25.8638 35.0553C26.1191 35.458 26.249 35.9357 26.2534 36.4884H24.4639C24.4595 36.2571 24.4089 36.0471 24.312 35.8586C24.2196 35.6701 24.0831 35.5201 23.9026 35.4087C23.7265 35.2931 23.5086 35.2352 23.2489 35.2352C22.9715 35.2352 22.7448 35.2931 22.5687 35.4087C22.3926 35.5201 22.2562 35.6744 22.1593 35.8715C22.0625 36.0643 21.9942 36.2849 21.9546 36.5334C21.9194 36.7776 21.9018 37.0347 21.9018 37.3046V37.491C21.9018 37.7609 21.9194 38.0201 21.9546 38.2686C21.9898 38.5171 22.0559 38.7378 22.1527 38.9306C22.254 39.1234 22.3926 39.2755 22.5687 39.3869C22.7448 39.4983 22.9737 39.554 23.2555 39.554Z" fill="#3617CE"/>
</svg>
