<svg width="32" height="33" viewBox="0 0 32 33" fill="none" xmlns="http://www.w3.org/2000/svg">
<g id="Star">
<path id="Star 5" d="M14.1052 2.06687C14.6265 0.130704 17.3735 0.130705 17.8948 2.06687L20.2852 10.9449C20.467 11.6202 20.9945 12.1477 21.6699 12.3295L30.5479 14.7199C32.484 15.2412 32.484 17.9883 30.5479 18.5096L21.6699 20.9C20.9945 21.0818 20.467 21.6093 20.2852 22.2846L17.8948 31.1626C17.3735 33.0988 14.6265 33.0988 14.1052 31.1626L11.7148 22.2846C11.533 21.6093 11.0055 21.0818 10.3301 20.9L1.45213 18.5096C-0.484042 17.9883 -0.484041 15.2412 1.45213 14.7199L10.3301 12.3295C11.0055 12.1477 11.533 11.6202 11.7148 10.9449L14.1052 2.06687Z" fill="#F7ECFF"/>
</g>
</svg>
