<svg width="52" height="53" viewBox="0 0 52 53" fill="none" xmlns="http://www.w3.org/2000/svg">
<g id="Star">
<path id="Star 5" d="M22.9209 2.97445C23.768 -0.171822 28.232 -0.171821 29.0791 2.97445L32.9635 17.4012C33.2589 18.4986 34.1161 19.3558 35.2135 19.6513L49.6403 23.5357C52.7866 24.3828 52.7866 28.8467 49.6403 29.6938L35.2135 33.5782C34.1161 33.8737 33.2589 34.7309 32.9635 35.8283L29.0791 50.255C28.232 53.4013 23.768 53.4013 22.9209 50.255L19.0365 35.8283C18.7411 34.7309 17.8839 33.8737 16.7865 33.5782L2.3597 29.6938C-0.786568 28.8467 -0.786567 24.3828 2.3597 23.5357L16.7865 19.6513C17.8839 19.3558 18.7411 18.4986 19.0365 17.4012L22.9209 2.97445Z" fill="#EAF6FE"/>
</g>
</svg>
