<svg width="80" height="80" viewBox="0 0 80 80" fill="none" xmlns="http://www.w3.org/2000/svg">
<g id="img">
<circle id="Ellipse 47" cx="40" cy="40" r="40" fill="#3617CE"/>
<path id="Vector" d="M32.3634 39.4637L32.315 39.4213L32.3569 39.3724C33.2983 38.2895 33.8642 36.9663 33.8642 35.6463C33.8642 35.294 33.8492 34.9407 33.7878 34.6069C33.3069 31.9833 31.0175 30.0056 28.2848 30.0001H17V34.5982H27.4488C28.387 34.5982 29.1487 35.3669 29.1487 36.3161C29.1487 37.2653 28.3881 38.034 27.4488 38.034H21.7521V35.6322L17 38.034V49.9994H28.6344C31.3338 49.9994 33.6168 48.1662 34.3312 45.6677C34.4818 45.1404 34.5646 44.5837 34.5646 44.0074C34.5646 42.2993 33.7201 40.6434 32.3645 39.4637H32.3634ZM27.635 45.435H21.7521V41.7187H27.635C28.6506 41.7187 29.4736 42.5505 29.4736 43.5769C29.4736 44.6032 28.6506 45.435 27.635 45.435ZM57.8948 35.4615H62.1929L57.3278 49.9874H52.6209L47.6999 35.4615H52.2153L55.0545 45.0077L57.8938 35.4615H57.8948ZM46.9403 50.0146L46.864 50.0276C46.3185 50.12 45.5471 50.1657 44.5713 50.1657C41.3824 50.1657 39.9429 49.0915 39.9429 46.5745V38.483H37.6265V35.4615H39.9429V33.3859L44.2205 31.2244V35.4615H46.9414V38.483H44.2205V45.2556C44.2205 46.457 44.4605 46.6995 45.6493 46.6995C46.1345 46.6995 46.5175 46.6647 46.7886 46.5962L46.9414 46.5571V50.0135L46.9403 50.0146Z" fill="white"/>
</g>
</svg>
