<svg width="24" height="24" viewBox="0 0 24 24" fill="none" xmlns="http://www.w3.org/2000/svg">
<g id="icon/tip">
<path id="Icon" d="M12 21L14.4457 16.3043H19.75C20.9926 16.3043 22 15.297 22 14.0543V5.25C22 4.00736 20.9926 3 19.75 3H4.25C3.00736 3 2 4.00736 2 5.25V14.0543C2 15.297 3.00736 16.3043 4.25 16.3043H9.75L12 21Z" stroke="#3617CE" stroke-width="1.5" stroke-linecap="round" stroke-linejoin="round"/>
<g id="Vector">
<path d="M15.6273 10.7578H14.2133V9.69922H15.6273C15.8201 9.69922 15.9763 9.66667 16.0961 9.60156C16.2159 9.53646 16.3031 9.44661 16.3578 9.33203C16.4151 9.21484 16.4437 9.08333 16.4437 8.9375C16.4437 8.78125 16.4151 8.63672 16.3578 8.50391C16.3031 8.37109 16.2159 8.26432 16.0961 8.18359C15.9763 8.10026 15.8201 8.05859 15.6273 8.05859H14.7289V12.6875H13.3578V7H15.6273C16.0831 7 16.475 7.08333 16.8031 7.25C17.1339 7.41667 17.3878 7.64583 17.5648 7.9375C17.7419 8.22656 17.8305 8.55729 17.8305 8.92969C17.8305 9.29688 17.7419 9.61719 17.5648 9.89062C17.3878 10.1641 17.1339 10.3776 16.8031 10.5312C16.475 10.6823 16.0831 10.7578 15.6273 10.7578Z" fill="#3617CE"/>
<path d="M12.593 7V12.6875H11.2258V7H12.593Z" fill="#3617CE"/>
<path d="M9.04297 7V12.6875H7.67188V7H9.04297ZM10.7539 7V8.05859H6V7H10.7539Z" fill="#3617CE"/>
</g>
</g>
</svg>
