<svg width="184" height="72" viewBox="0 0 184 72" fill="none" xmlns="http://www.w3.org/2000/svg">
<path d="M26 61H46" stroke="#303030" stroke-width="3" stroke-linecap="round"/>
<rect x="9.5" y="20.5" width="53" height="33" rx="2.5" stroke="#303030" stroke-width="3"/>
<path d="M40.4961 36.6248L40.4631 36.5951L40.4917 36.5608C41.1349 35.8028 41.5215 34.8765 41.5215 33.9525C41.5215 33.7059 41.5112 33.4585 41.4693 33.2249C41.1408 31.3883 39.5766 30.0038 37.7097 30H30V33.2188H37.1386C37.7795 33.2188 38.2999 33.7569 38.2999 34.4213C38.2999 35.0858 37.7802 35.6239 37.1386 35.6239H33.2466V33.9426L30 35.6239V44H37.9485C39.7927 44 41.3524 42.7168 41.8405 40.9677C41.9434 40.5986 42 40.2089 42 39.8055C42 38.6098 41.423 37.4506 40.4969 36.6248H40.4961ZM37.2657 40.8048H33.2466V38.2033H37.2657C37.9596 38.2033 38.5219 38.7856 38.5219 39.5041C38.5219 40.2226 37.9596 40.8048 37.2657 40.8048Z" fill="#491BC7"/>
<path d="M28.2668 10.1968C27.8813 9.46354 27.0016 9.22871 26.302 9.67231C25.6023 10.1159 25.3477 11.0699 25.7332 11.8032L28.2668 10.1968ZM29.9391 19.8032L30.6371 21.1309L33.1708 19.5245L32.4728 18.1968L29.9391 19.8032ZM25.7332 11.8032L29.9391 19.8032L32.4728 18.1968L28.2668 10.1968L25.7332 11.8032Z" fill="#303030"/>
<path d="M43.7332 10.1968C44.1187 9.46354 44.9984 9.22871 45.698 9.67231C46.3977 10.1159 46.6523 11.0699 46.2668 11.8032L43.7332 10.1968ZM42.0609 19.8032L41.3629 21.1309L38.8292 19.5245L39.5272 18.1968L42.0609 19.8032ZM46.2668 11.8032L42.0609 19.8032L39.5272 18.1968L43.7332 10.1968L46.2668 11.8032Z" fill="#303030"/>
<path fill-rule="evenodd" clip-rule="evenodd" d="M92 28C90.8954 28 90 28.8954 90 30V34H86C84.8954 34 84 34.8954 84 36C84 37.1046 84.8954 38 86 38H90V42C90 43.1046 90.8954 44 92 44C93.1046 44 94 43.1046 94 42V38H98C99.1046 38 100 37.1046 100 36C100 34.8954 99.1046 34 98 34H94V30C94 28.8954 93.1046 28 92 28Z" fill="#D9D9D9"/>
<rect x="133.5" y="12.5" width="29" height="47" rx="2.5" stroke="#303030" stroke-width="3"/>
<path fill-rule="evenodd" clip-rule="evenodd" d="M143.408 20C144.185 20 144.816 19.3284 144.816 18.5C144.816 17.6716 144.185 17 143.408 17C142.63 17 142 17.6716 142 18.5C142 19.3284 142.63 20 143.408 20ZM147.631 17C146.803 17 146.131 17.6716 146.131 18.5C146.131 19.3284 146.803 20 147.631 20H152.504C153.333 20 154.004 19.3284 154.004 18.5C154.004 17.6716 153.333 17 152.504 17H147.631Z" fill="#303030"/>
</svg>
