<svg width="40" height="40" viewBox="0 0 40 40" fill="none" xmlns="http://www.w3.org/2000/svg">
    <circle cx="20" cy="20" r="20" fill="#FCEDE3"/>
    <path fill-rule="evenodd" clip-rule="evenodd" d="m22.802 14.445-6.106 6.105c-.405.358-.656.86-.696 1.318v2.135l2.064.002c.534-.038 1.032-.287 1.43-.743l6.063-6.062-2.755-2.755zm1.415-1.414 2.754 2.755.894-.894a.462.462 0 0 0 0-.653l-2.104-2.104a.456.456 0 0 0-.647 0l-.897.896zM30 21v7a2 2 0 0 1-2 2H12a2 2 0 0 1-2-2V12a2 2 0 0 1 2-2h7v2h-7v16h16v-7h2zm-4.563-11c.655 0 1.283.261 1.741.723l2.101 2.101a2.462 2.462 0 0 1 0 3.482l-8.322 8.318c-.698.806-1.688 1.3-2.822 1.378H14v-1l.003-3.215c.085-1.054.576-2.035 1.323-2.694l8.37-8.368A2.456 2.456 0 0 1 25.436 10z" fill="#FE794D"/>
</svg>
